<?xml version="1.0" encoding="UTF-8" standalone="no"?>
<!DOCTYPE svg PUBLIC "-//W3C//DTD SVG 1.1//EN"
 "http://www.w3.org/Graphics/SVG/1.1/DTD/svg11.dtd">
<!-- Generated by graphviz version 7.0.1 (20221109.1506)
 -->
<!-- Title: G Pages: 1 -->
<svg width="590pt" height="777pt"
 viewBox="0.00 0.00 590.25 777.06" xmlns="http://www.w3.org/2000/svg" xmlns:xlink="http://www.w3.org/1999/xlink">
<g id="graph0" class="graph" transform="scale(1 1) rotate(0) translate(4 773.06)">
<title>G</title><style>.edge>path:hover{stroke-width:8}</style>
<polygon fill="white" stroke="none" points="-4,4 -4,-773.06 586.25,-773.06 586.25,4 -4,4"/>
<!-- dateutil -->
<g id="node1" class="node">
<title>dateutil</title><style>.edge>path:hover{stroke-width:8}</style>
<ellipse fill="#b65353" stroke="black" cx="202.35" cy="-747.85" rx="28.01" ry="18"/>
<text text-anchor="middle" x="202.35" y="-745.35" font-family="Helvetica,sans-Serif" font-size="10.00" fill="#ffffff">dateutil</text>
</g>
<!-- openapi_server_util -->
<g id="node15" class="node">
<title>openapi_server_util</title><style>.edge>path:hover{stroke-width:8}</style>
<ellipse fill="#15c1c1" stroke="black" cx="230.35" cy="-591" rx="60.21" ry="21.43"/>
<text text-anchor="middle" x="230.35" y="-594" font-family="Helvetica,sans-Serif" font-size="10.00" fill="#000000">openapi_server.</text>
<text text-anchor="middle" x="230.35" y="-583" font-family="Helvetica,sans-Serif" font-size="10.00" fill="#000000">util</text>
</g>
<!-- dateutil&#45;&gt;openapi_server_util -->
<g id="edge1" class="edge">
<title>dateutil&#45;&gt;openapi_server_util</title><style>.edge>path:hover{stroke-width:8}</style>
<path fill="none" stroke="black" d="M205.45,-729.69C210.07,-704.16 218.82,-655.76 224.62,-623.68"/>
<polygon fill="#b65353" stroke="black" points="228,-624.63 226.34,-614.16 221.11,-623.38 228,-624.63"/>
</g>
<!-- dateutil_parser -->
<g id="node2" class="node">
<title>dateutil_parser</title><style>.edge>path:hover{stroke-width:8}</style>
<ellipse fill="#b65353" stroke="black" cx="104.35" cy="-747.85" rx="36.12" ry="21.43"/>
<text text-anchor="middle" x="104.35" y="-750.85" font-family="Helvetica,sans-Serif" font-size="10.00" fill="#ffffff">dateutil.</text>
<text text-anchor="middle" x="104.35" y="-739.85" font-family="Helvetica,sans-Serif" font-size="10.00" fill="#ffffff">parser</text>
</g>
<!-- dateutil_parser&#45;&gt;openapi_server_util -->
<g id="edge2" class="edge">
<title>dateutil_parser&#45;&gt;openapi_server_util</title><style>.edge>path:hover{stroke-width:8}</style>
<path fill="none" stroke="black" d="M119.55,-728.17C141.35,-701.37 181.68,-651.8 207.21,-620.44"/>
<polygon fill="#b65353" stroke="black" points="209.75,-622.86 213.34,-612.89 204.32,-618.44 209.75,-622.86"/>
</g>
<!-- flask -->
<g id="node3" class="node">
<title>flask</title><style>.edge>path:hover{stroke-width:8}</style>
<ellipse fill="#7ab83d" stroke="black" cx="449.35" cy="-279.83" rx="27" ry="18"/>
<text text-anchor="middle" x="449.35" y="-277.33" font-family="Helvetica,sans-Serif" font-size="10.00" fill="#000000">flask</text>
</g>
<!-- openapi_server_test_test_default_controller -->
<g id="node13" class="node">
<title>openapi_server_test_test_default_controller</title><style>.edge>path:hover{stroke-width:8}</style>
<ellipse fill="#378181" stroke="black" cx="502.35" cy="-28.99" rx="79.81" ry="28.98"/>
<text text-anchor="middle" x="502.35" y="-37.49" font-family="Helvetica,sans-Serif" font-size="10.00" fill="#ffffff">openapi_server.</text>
<text text-anchor="middle" x="502.35" y="-26.49" font-family="Helvetica,sans-Serif" font-size="10.00" fill="#ffffff">test.</text>
<text text-anchor="middle" x="502.35" y="-15.49" font-family="Helvetica,sans-Serif" font-size="10.00" fill="#ffffff">test_default_controller</text>
</g>
<!-- flask&#45;&gt;openapi_server_test_test_default_controller -->
<g id="edge3" class="edge">
<title>flask&#45;&gt;openapi_server_test_test_default_controller</title><style>.edge>path:hover{stroke-width:8}</style>
<path fill="none" stroke="black" d="M504.35,-192.62C494.3,-147.05 419.93,-161.18 432.35,-116.2"/>
<path fill="none" stroke="black" d="M466.94,-265.7C485.31,-250.26 510.62,-223.1 504.35,-194.62"/>
</g>
<!-- flask_json -->
<g id="node4" class="node">
<title>flask_json</title><style>.edge>path:hover{stroke-width:8}</style>
<ellipse fill="#85c247" stroke="black" cx="480.35" cy="-373.81" rx="34.96" ry="18"/>
<text text-anchor="middle" x="480.35" y="-371.31" font-family="Helvetica,sans-Serif" font-size="10.00" fill="#000000">flask.json</text>
</g>
<!-- flask_json&#45;&gt;flask -->
<g id="edge4" class="edge">
<title>flask_json&#45;&gt;flask</title><style>.edge>path:hover{stroke-width:8}</style>
<path fill="none" stroke="black" d="M474.66,-355.94C470.19,-342.67 463.86,-323.9 458.65,-308.44"/>
<polygon fill="#85c247" stroke="black" points="462.1,-307.7 455.58,-299.34 455.46,-309.93 462.1,-307.7"/>
</g>
<!-- flask_json&#45;&gt;openapi_server_test_test_default_controller -->
<g id="edge5" class="edge">
<title>flask_json&#45;&gt;openapi_server_test_test_default_controller</title><style>.edge>path:hover{stroke-width:8}</style>
<path fill="none" stroke="black" d="M486.6,-355.69C497.4,-323.75 517.21,-253 504.35,-194.62"/>
</g>
<!-- openapi_server___main__ -->
<g id="node5" class="node">
<title>openapi_server___main__</title><style>.edge>path:hover{stroke-width:8}</style>
<ellipse fill="#49acac" stroke="black" cx="344.35" cy="-28.99" rx="60.21" ry="21.43"/>
<text text-anchor="middle" x="344.35" y="-31.99" font-family="Helvetica,sans-Serif" font-size="10.00" fill="#000000">openapi_server.</text>
<text text-anchor="middle" x="344.35" y="-20.99" font-family="Helvetica,sans-Serif" font-size="10.00" fill="#000000">__main__</text>
</g>
<!-- openapi_server_controllers_default_controller -->
<g id="node6" class="node">
<title>openapi_server_controllers_default_controller</title><style>.edge>path:hover{stroke-width:8}</style>
<ellipse fill="#3d8f8f" stroke="black" cx="64.35" cy="-28.99" rx="64.19" ry="28.98"/>
<text text-anchor="middle" x="64.35" y="-37.49" font-family="Helvetica,sans-Serif" font-size="10.00" fill="#ffffff">openapi_server.</text>
<text text-anchor="middle" x="64.35" y="-26.49" font-family="Helvetica,sans-Serif" font-size="10.00" fill="#ffffff">controllers.</text>
<text text-anchor="middle" x="64.35" y="-15.49" font-family="Helvetica,sans-Serif" font-size="10.00" fill="#ffffff">default_controller</text>
</g>
<!-- openapi_server_encoder -->
<g id="node7" class="node">
<title>openapi_server_encoder</title><style>.edge>path:hover{stroke-width:8}</style>
<ellipse fill="#2db4b4" stroke="black" cx="344.35" cy="-115.2" rx="60.21" ry="21.43"/>
<text text-anchor="middle" x="344.35" y="-118.2" font-family="Helvetica,sans-Serif" font-size="10.00" fill="#000000">openapi_server.</text>
<text text-anchor="middle" x="344.35" y="-107.2" font-family="Helvetica,sans-Serif" font-size="10.00" fill="#000000">encoder</text>
</g>
<!-- openapi_server_encoder&#45;&gt;openapi_server___main__ -->
<g id="edge6" class="edge">
<title>openapi_server_encoder&#45;&gt;openapi_server___main__</title><style>.edge>path:hover{stroke-width:8}</style>
<path fill="none" stroke="black" d="M344.35,-93.38C344.35,-83.97 344.35,-72.63 344.35,-62.16"/>
<polygon fill="#2db4b4" stroke="black" points="347.85,-62.37 344.35,-52.37 340.85,-62.37 347.85,-62.37"/>
</g>
<!-- openapi_server_test -->
<g id="node12" class="node">
<title>openapi_server_test</title><style>.edge>path:hover{stroke-width:8}</style>
<ellipse fill="#3db8b8" stroke="black" cx="206.35" cy="-28.99" rx="60.21" ry="21.43"/>
<text text-anchor="middle" x="206.35" y="-31.99" font-family="Helvetica,sans-Serif" font-size="10.00" fill="#000000">openapi_server.</text>
<text text-anchor="middle" x="206.35" y="-20.99" font-family="Helvetica,sans-Serif" font-size="10.00" fill="#000000">test</text>
</g>
<!-- openapi_server_encoder&#45;&gt;openapi_server_test -->
<g id="edge7" class="edge">
<title>openapi_server_encoder&#45;&gt;openapi_server_test</title><style>.edge>path:hover{stroke-width:8}</style>
<path fill="none" stroke="black" d="M314.74,-96.13C294.55,-83.81 267.59,-67.36 245.61,-53.95"/>
<polygon fill="#2db4b4" stroke="black" points="247.55,-51.03 237.19,-48.81 243.91,-57.01 247.55,-51.03"/>
</g>
<!-- openapi_server_models -->
<g id="node8" class="node">
<title>openapi_server_models</title><style>.edge>path:hover{stroke-width:8}</style>
<ellipse fill="#05dbdb" stroke="black" cx="268.35" cy="-193.62" rx="60.21" ry="21.43"/>
<text text-anchor="middle" x="268.35" y="-196.62" font-family="Helvetica,sans-Serif" font-size="10.00" fill="#000000">openapi_server.</text>
<text text-anchor="middle" x="268.35" y="-185.62" font-family="Helvetica,sans-Serif" font-size="10.00" fill="#000000">models</text>
</g>
<!-- openapi_server_models&#45;&gt;openapi_server_controllers_default_controller -->
<g id="edge8" class="edge">
<title>openapi_server_models&#45;&gt;openapi_server_controllers_default_controller</title><style>.edge>path:hover{stroke-width:8}</style>
<path fill="none" stroke="black" d="M262.47,-171.97C258.75,-156.65 254.9,-135.21 256.35,-116.2"/>
<path fill="none" stroke="black" d="M256.35,-114.2C256.91,-106.84 179.82,-75.06 123.16,-52.72"/>
<polygon fill="#05dbdb" stroke="black" points="124.49,-49.48 113.9,-49.08 121.93,-55.99 124.49,-49.48"/>
</g>
<!-- openapi_server_models&#45;&gt;openapi_server_encoder -->
<g id="edge9" class="edge">
<title>openapi_server_models&#45;&gt;openapi_server_encoder</title><style>.edge>path:hover{stroke-width:8}</style>
<path fill="none" stroke="black" d="M287.92,-172.94C296.69,-164.12 307.2,-153.55 316.76,-143.94"/>
<polygon fill="#05dbdb" stroke="black" points="319.2,-146.44 323.77,-136.88 314.24,-141.51 319.2,-146.44"/>
</g>
<!-- openapi_server_models&#45;&gt;openapi_server_test_test_default_controller -->
<g id="edge10" class="edge">
<title>openapi_server_models&#45;&gt;openapi_server_test_test_default_controller</title><style>.edge>path:hover{stroke-width:8}</style>
<path fill="none" stroke="black" d="M256.35,-114.2C260.57,-58.59 277.57,-97.02 413.35,-57.98 419.63,-56.18 426.14,-54.24 432.66,-52.27"/>
<polygon fill="#05dbdb" stroke="black" points="433.6,-55.64 442.14,-49.37 431.55,-48.95 433.6,-55.64"/>
</g>
<!-- openapi_server_models_base_model_ -->
<g id="node9" class="node">
<title>openapi_server_models_base_model_</title><style>.edge>path:hover{stroke-width:8}</style>
<ellipse fill="#23c8c8" stroke="black" cx="287.35" cy="-467.79" rx="60.21" ry="28.98"/>
<text text-anchor="middle" x="287.35" y="-476.29" font-family="Helvetica,sans-Serif" font-size="10.00" fill="#000000">openapi_server.</text>
<text text-anchor="middle" x="287.35" y="-465.29" font-family="Helvetica,sans-Serif" font-size="10.00" fill="#000000">models.</text>
<text text-anchor="middle" x="287.35" y="-454.29" font-family="Helvetica,sans-Serif" font-size="10.00" fill="#000000">base_model_</text>
</g>
<!-- openapi_server_models_base_model_&#45;&gt;openapi_server_encoder -->
<g id="edge11" class="edge">
<title>openapi_server_models_base_model_&#45;&gt;openapi_server_encoder</title><style>.edge>path:hover{stroke-width:8}</style>
<path fill="none" stroke="black" d="M356.35,-372.81C364.25,-292.2 354.9,-196.82 348.8,-148.19"/>
<polygon fill="#23c8c8" stroke="black" points="352.28,-147.84 347.53,-138.37 345.34,-148.74 352.28,-147.84"/>
</g>
<!-- openapi_server_models_gacha_item -->
<g id="node10" class="node">
<title>openapi_server_models_gacha_item</title><style>.edge>path:hover{stroke-width:8}</style>
<ellipse fill="#16caca" stroke="black" cx="230.35" cy="-373.81" rx="60.21" ry="28.98"/>
<text text-anchor="middle" x="230.35" y="-382.31" font-family="Helvetica,sans-Serif" font-size="10.00" fill="#000000">openapi_server.</text>
<text text-anchor="middle" x="230.35" y="-371.31" font-family="Helvetica,sans-Serif" font-size="10.00" fill="#000000">models.</text>
<text text-anchor="middle" x="230.35" y="-360.31" font-family="Helvetica,sans-Serif" font-size="10.00" fill="#000000">gacha_item</text>
</g>
<!-- openapi_server_models_base_model_&#45;&gt;openapi_server_models_gacha_item -->
<g id="edge12" class="edge">
<title>openapi_server_models_base_model_&#45;&gt;openapi_server_models_gacha_item</title><style>.edge>path:hover{stroke-width:8}</style>
<path fill="none" stroke="black" d="M270.55,-439.69C265.09,-430.88 258.94,-420.95 253.12,-411.56"/>
<polygon fill="#23c8c8" stroke="black" points="256.26,-409.98 248.01,-403.32 250.31,-413.66 256.26,-409.98"/>
</g>
<!-- openapi_server_models_gacha_list -->
<g id="node11" class="node">
<title>openapi_server_models_gacha_list</title><style>.edge>path:hover{stroke-width:8}</style>
<ellipse fill="#20b6b6" stroke="black" cx="268.35" cy="-279.83" rx="60.21" ry="28.98"/>
<text text-anchor="middle" x="268.35" y="-288.33" font-family="Helvetica,sans-Serif" font-size="10.00" fill="#000000">openapi_server.</text>
<text text-anchor="middle" x="268.35" y="-277.33" font-family="Helvetica,sans-Serif" font-size="10.00" fill="#000000">models.</text>
<text text-anchor="middle" x="268.35" y="-266.33" font-family="Helvetica,sans-Serif" font-size="10.00" fill="#000000">gacha_list</text>
</g>
<!-- openapi_server_models_base_model_&#45;&gt;openapi_server_models_gacha_list -->
<g id="edge13" class="edge">
<title>openapi_server_models_base_model_&#45;&gt;openapi_server_models_gacha_list</title><style>.edge>path:hover{stroke-width:8}</style>
<path fill="none" stroke="black" d="M356.35,-372.81C358.97,-346.06 339.24,-323.96 317.8,-308.14"/>
<polygon fill="#23c8c8" stroke="black" points="320.02,-305.42 309.81,-302.61 316.04,-311.18 320.02,-305.42"/>
<path fill="none" stroke="black" d="M317.26,-442.55C334.67,-425.74 353.72,-401.63 356.35,-374.81"/>
</g>
<!-- openapi_server_models_gacha_item&#45;&gt;openapi_server_controllers_default_controller -->
<g id="edge14" class="edge">
<title>openapi_server_models_gacha_item&#45;&gt;openapi_server_controllers_default_controller</title><style>.edge>path:hover{stroke-width:8}</style>
<path fill="none" stroke="black" d="M204.66,-347.14C190.15,-329.56 175.75,-305.12 180.35,-280.83"/>
<path fill="none" stroke="black" d="M180.35,-278.83C187.3,-242.05 183.91,-231.88 180.35,-194.62"/>
</g>
<!-- openapi_server_models_gacha_item&#45;&gt;openapi_server_models -->
<g id="edge15" class="edge">
<title>openapi_server_models_gacha_item&#45;&gt;openapi_server_models</title><style>.edge>path:hover{stroke-width:8}</style>
<path fill="none" stroke="black" d="M180.35,-278.83C185.2,-253.18 205.83,-232.68 225.9,-218.34"/>
<polygon fill="#16caca" stroke="black" points="227.73,-221.33 234.07,-212.84 223.82,-215.52 227.73,-221.33"/>
</g>
<!-- openapi_server_models_gacha_item&#45;&gt;openapi_server_models_gacha_list -->
<g id="edge16" class="edge">
<title>openapi_server_models_gacha_item&#45;&gt;openapi_server_models_gacha_list</title><style>.edge>path:hover{stroke-width:8}</style>
<path fill="none" stroke="black" d="M241.75,-345.21C245.14,-337.01 248.91,-327.87 252.53,-319.12"/>
<polygon fill="#16caca" stroke="black" points="255.66,-320.7 256.24,-310.12 249.19,-318.03 255.66,-320.7"/>
</g>
<!-- openapi_server_models_gacha_item&#45;&gt;openapi_server_test_test_default_controller -->
<g id="edge17" class="edge">
<title>openapi_server_models_gacha_item&#45;&gt;openapi_server_test_test_default_controller</title><style>.edge>path:hover{stroke-width:8}</style>
<path fill="none" stroke="black" d="M394.35,-192.62C420.93,-165.56 422.26,-152.76 432.35,-116.2"/>
<path fill="none" stroke="black" d="M432.35,-114.2C437.54,-95.38 449.83,-78.11 462.69,-64.17"/>
<polygon fill="#16caca" stroke="black" points="465.18,-66.63 469.65,-57.03 460.17,-61.74 465.18,-66.63"/>
<path fill="none" stroke="black" d="M180.35,-278.83C199.33,-178.4 322.73,-267.55 394.35,-194.62"/>
</g>
<!-- openapi_server_models_gacha_list&#45;&gt;openapi_server_controllers_default_controller -->
<g id="edge18" class="edge">
<title>openapi_server_models_gacha_list&#45;&gt;openapi_server_controllers_default_controller</title><style>.edge>path:hover{stroke-width:8}</style>
<path fill="none" stroke="black" d="M227.78,-257.93C205.97,-243.6 182.99,-222.2 180.35,-194.62"/>
</g>
<!-- openapi_server_models_gacha_list&#45;&gt;openapi_server_models -->
<g id="edge19" class="edge">
<title>openapi_server_models_gacha_list&#45;&gt;openapi_server_models</title><style>.edge>path:hover{stroke-width:8}</style>
<path fill="none" stroke="black" d="M268.35,-250.79C268.35,-243.1 268.35,-234.7 268.35,-226.8"/>
<polygon fill="#20b6b6" stroke="black" points="271.85,-226.86 268.35,-216.86 264.85,-226.86 271.85,-226.86"/>
</g>
<!-- openapi_server_models_gacha_list&#45;&gt;openapi_server_test_test_default_controller -->
<g id="edge20" class="edge">
<title>openapi_server_models_gacha_list&#45;&gt;openapi_server_test_test_default_controller</title><style>.edge>path:hover{stroke-width:8}</style>
<path fill="none" stroke="black" d="M308.34,-257.83C334.78,-242.65 369.09,-220.34 394.35,-194.62"/>
</g>
<!-- openapi_server_typing_utils -->
<g id="node14" class="node">
<title>openapi_server_typing_utils</title><style>.edge>path:hover{stroke-width:8}</style>
<ellipse fill="#47c2c2" stroke="black" cx="290.35" cy="-669.42" rx="60.21" ry="21.43"/>
<text text-anchor="middle" x="290.35" y="-672.42" font-family="Helvetica,sans-Serif" font-size="10.00" fill="#000000">openapi_server.</text>
<text text-anchor="middle" x="290.35" y="-661.42" font-family="Helvetica,sans-Serif" font-size="10.00" fill="#000000">typing_utils</text>
</g>
<!-- openapi_server_typing_utils&#45;&gt;openapi_server_util -->
<g id="edge21" class="edge">
<title>openapi_server_typing_utils&#45;&gt;openapi_server_util</title><style>.edge>path:hover{stroke-width:8}</style>
<path fill="none" stroke="black" d="M274.58,-648.34C267.97,-639.92 260.15,-629.96 252.94,-620.78"/>
<polygon fill="#47c2c2" stroke="black" points="255.87,-618.84 246.94,-613.13 250.36,-623.16 255.87,-618.84"/>
</g>
<!-- openapi_server_util&#45;&gt;openapi_server_controllers_default_controller -->
<g id="edge22" class="edge">
<title>openapi_server_util&#45;&gt;openapi_server_controllers_default_controller</title><style>.edge>path:hover{stroke-width:8}</style>
<path fill="none" stroke="black" d="M212.47,-570.05C205.23,-559.89 198.7,-546.92 199.35,-533.78"/>
<path fill="none" stroke="black" d="M199.35,-466.79C205.82,-419.14 149.4,-422.38 142.35,-374.81"/>
<path fill="none" stroke="black" d="M199.35,-532.78C200.75,-504.38 195.52,-496.97 199.35,-468.79"/>
</g>
<!-- openapi_server_util&#45;&gt;openapi_server_models_base_model_ -->
<g id="edge23" class="edge">
<title>openapi_server_util&#45;&gt;openapi_server_models_base_model_</title><style>.edge>path:hover{stroke-width:8}</style>
<path fill="none" stroke="black" d="M199.35,-532.78C200.25,-514.5 213.07,-500.89 228.67,-491.04"/>
<polygon fill="#15c1c1" stroke="black" points="230.36,-494.1 237.34,-486.13 226.91,-488.01 230.36,-494.1"/>
</g>
<!-- openapi_server_util&#45;&gt;openapi_server_models_gacha_item -->
<g id="edge24" class="edge">
<title>openapi_server_util&#45;&gt;openapi_server_models_gacha_item</title><style>.edge>path:hover{stroke-width:8}</style>
<path fill="none" stroke="black" d="M199.35,-466.79C202.26,-448.68 208.3,-429.33 214.28,-413.08"/>
<polygon fill="#15c1c1" stroke="black" points="217.53,-414.38 217.84,-403.79 210.99,-411.88 217.53,-414.38"/>
</g>
<!-- openapi_server_util&#45;&gt;openapi_server_models_gacha_list -->
<g id="edge25" class="edge">
<title>openapi_server_util&#45;&gt;openapi_server_models_gacha_list</title><style>.edge>path:hover{stroke-width:8}</style>
<path fill="none" stroke="black" d="M199.35,-466.79C207.72,-414.7 270.59,-447.04 299.35,-402.8 315.98,-377.2 305.22,-343.2 292.01,-317.6"/>
<polygon fill="#15c1c1" stroke="black" points="295.1,-315.95 287.21,-308.87 288.96,-319.32 295.1,-315.95"/>
</g>
<!-- six -->
<g id="node16" class="node">
<title>six</title><style>.edge>path:hover{stroke-width:8}</style>
<ellipse fill="#8522e7" stroke="black" cx="326.35" cy="-747.85" rx="27" ry="18"/>
<text text-anchor="middle" x="326.35" y="-745.35" font-family="Helvetica,sans-Serif" font-size="10.00" fill="#ffffff">six</text>
</g>
<!-- six&#45;&gt;openapi_server_controllers_default_controller -->
<g id="edge26" class="edge">
<title>six&#45;&gt;openapi_server_controllers_default_controller</title><style>.edge>path:hover{stroke-width:8}</style>
<path fill="none" stroke="black" d="M142.35,-372.81C134.24,-318.16 154.33,-304.76 166.35,-250.84 171.94,-225.7 182.8,-220.25 180.35,-194.62"/>
<path fill="none" stroke="black" d="M302.29,-739.34C252.42,-722.09 142.35,-674.67 142.35,-592 142.35,-592 142.35,-592 142.35,-532.78 142.35,-462.57 147.49,-444.83 142.35,-374.81"/>
<path fill="none" stroke="black" d="M180.35,-192.62C173.95,-140.16 134.07,-92.53 102.83,-62.57"/>
<polygon fill="#8522e7" stroke="black" points="105.5,-60.27 95.8,-56 100.72,-65.39 105.5,-60.27"/>
</g>
<!-- six&#45;&gt;openapi_server_encoder -->
<g id="edge27" class="edge">
<title>six&#45;&gt;openapi_server_encoder</title><style>.edge>path:hover{stroke-width:8}</style>
<path fill="none" stroke="black" d="M432.35,-192.62C431.19,-168.65 412.22,-150.49 392.19,-137.9"/>
<polygon fill="#8522e7" stroke="black" points="394.06,-134.93 383.65,-132.92 390.53,-140.98 394.06,-134.93"/>
<path fill="none" stroke="black" d="M394.35,-532.78C346.1,-416.83 388.81,-374.01 413.35,-250.84 418.5,-224.97 433.61,-220.96 432.35,-194.62"/>
</g>
<!-- six&#45;&gt;openapi_server_models_base_model_ -->
<g id="edge28" class="edge">
<title>six&#45;&gt;openapi_server_models_base_model_</title><style>.edge>path:hover{stroke-width:8}</style>
<path fill="none" stroke="black" d="M394.35,-532.78C386.95,-512.04 368.53,-497.67 349.01,-487.89"/>
<polygon fill="#8522e7" stroke="black" points="350.68,-484.81 340.13,-483.82 347.76,-491.17 350.68,-484.81"/>
<path fill="none" stroke="black" d="M394.35,-668.42C391.55,-608.65 414.44,-590.15 394.35,-533.78"/>
</g>
<!-- six&#45;&gt;openapi_server_test_test_default_controller -->
<g id="edge29" class="edge">
<title>six&#45;&gt;openapi_server_test_test_default_controller</title><style>.edge>path:hover{stroke-width:8}</style>
<path fill="none" stroke="black" d="M432.35,-192.62C428.65,-158.86 423.31,-148.94 432.35,-116.2"/>
</g>
<!-- six&#45;&gt;openapi_server_util -->
<g id="edge30" class="edge">
<title>six&#45;&gt;openapi_server_util</title><style>.edge>path:hover{stroke-width:8}</style>
<path fill="none" stroke="black" d="M394.35,-668.42C392.31,-624.84 344.2,-606.05 300.61,-597.98"/>
<polygon fill="#8522e7" stroke="black" points="301.3,-594.55 290.86,-596.36 300.15,-601.45 301.3,-594.55"/>
<path fill="none" stroke="black" d="M346.91,-735.61C367.42,-722.7 395.71,-699.52 394.35,-670.42"/>
</g>
</g>
</svg>
